<?xml version="1.0" encoding="UTF-8"?>
<svg id="Layer_1" data-name="Layer 1" xmlns="http://www.w3.org/2000/svg" viewBox="0 0 594.28 565.79">
  <defs>
    <style>
      .cls-1 {
        fill: #547d89;
      }
    </style>
  </defs>
  <path class="cls-1" d="M118.89,565.27l178.25-93.8,178.25,93.7c2.45,1.28,5.47.33,6.75-2.11.5-.96.68-2.06.5-3.14l-34-198.5,144.15-140.55c1.97-1.94,1.99-5.11.05-7.07-.75-.76-1.73-1.27-2.8-1.43l-199.3-29L301.64,2.82c-1.2-2.49-4.19-3.52-6.68-2.32-1.01.49-1.83,1.31-2.32,2.32l-89.1,180.6L4.24,212.42c-2.73.42-4.6,2.97-4.18,5.7.16,1.06.66,2.04,1.43,2.8l144.15,140.55-34.05,198.5c-.45,2.72,1.39,5.3,4.11,5.75,1.07.18,2.17,0,3.14-.5l.05.05Z"/>
</svg>